<svg width="1094" height="1076" viewBox="0 0 1094 1076" fill="none" xmlns="http://www.w3.org/2000/svg">
<g clip-path="url(#clip0)">
<path d="M-596.275 -2.15902C-596.275 -2.15902 -1034.56 -121.995 -718.403 175.672C-402.249 473.339 -485.705 497.32 -485.705 497.32C-485.705 497.32 -270.883 837.821 -447.67 851.968C-642.586 867.567 -505.21 1046.1 122.069 1072.52C749.349 1098.95 885.709 765.947 772.808 451.802C659.907 137.658 1119 -2.15902 1119 -2.15902H-596.275Z" fill="#19D1A3"/>
<path d="M-728.943 -2.15703C-728.943 -2.15703 -922.775 -39.957 -651.467 247.856C-380.159 535.669 -597.058 769.792 -499.084 899.415C-401.111 1029.04 -84.5846 1102.64 254.545 1061.99C593.675 1021.35 861.225 800.55 744.407 486.379C627.589 172.208 951.661 -2.15703 951.661 -2.15703H-728.943Z" fill="#14093A"/>
</g>
<defs>
<clipPath id="clip0">
<rect width="1094" height="1076" fill="white"/>
</clipPath>
</defs>
</svg>
